<?xml version="1.0" standalone="no"?>
<!DOCTYPE svg PUBLIC "-//W3C//DTD SVG 20010904//EN"
 "http://www.w3.org/TR/2001/REC-SVG-20010904/DTD/svg10.dtd">
<svg version="1.0" xmlns="http://www.w3.org/2000/svg"
 width="600.000000pt" height="600.000000pt" viewBox="0 0 600.000000 600.000000"
 preserveAspectRatio="xMidYMid meet">

<g transform="translate(0.000000,600.000000) scale(0.100000,-0.100000)"
fill="#000000" stroke="none">
<path d="M2810 4993 c-411 -40 -782 -188 -1089 -435 -93 -75 -812 -788 -959
-951 -59 -65 -127 -146 -151 -180 -55 -79 -116 -205 -136 -282 -17 -68 -20
-188 -5 -264 23 -124 106 -276 230 -421 105 -124 888 -906 995 -995 160 -132
334 -238 509 -310 666 -274 1401 -180 1979 252 170 128 1001 961 1136 1140
188 248 221 507 96 753 -37 74 -75 129 -159 230 -93 114 -866 891 -986 992
-311 263 -695 427 -1099 468 -96 9 -280 11 -361 3z m425 -1022 c537 -133 865
-675 735 -1211 -11 -47 -45 -135 -75 -196 -111 -228 -284 -391 -512 -485 -336
-138 -699 -90 -990 130 -257 196 -406 515 -390 836 8 148 37 258 102 391 151
311 399 489 775 558 57 11 278 -3 355 -23z"/>
<path d="M2883 3486 c-89 -22 -165 -66 -234 -135 -199 -199 -199 -503 0 -702
199 -198 503 -198 702 0 96 97 149 220 149 351 0 208 -138 402 -336 471 -75
26 -211 33 -281 15z"/>
</g>
</svg>
